<svg width="49" height="24" viewBox="0 0 49 24" fill="none" xmlns="http://www.w3.org/2000/svg">
<path d="M16.2609 14.3516L16.1701 17.3333H14.8323V15.5412H14.2638V14.3516H16.2609ZM9.64355 15.5412V8.10722H11.0721V14.3465H13.872V8.10722H15.3101V15.5412H9.64355Z" fill="#6A7C8D"/>
<path d="M19.8491 12.8913H18.0765V11.6966H19.8491C20.123 11.6966 20.346 11.6489 20.518 11.5536C20.69 11.4549 20.8158 11.3187 20.8955 11.1451C20.9751 10.9716 21.0149 10.7758 21.0149 10.558C21.0149 10.3367 20.9751 10.1308 20.8955 9.94019C20.8158 9.74957 20.69 9.5964 20.518 9.48067C20.346 9.36494 20.123 9.30708 19.8491 9.30708H18.5734V15.5412H17.14V8.10722H19.8491C20.3938 8.10722 20.8604 8.21274 21.249 8.42378C21.6408 8.63141 21.9402 8.91904 22.1473 9.28665C22.3543 9.65427 22.4578 10.0746 22.4578 10.5478C22.4578 11.0277 22.3543 11.443 22.1473 11.7936C21.9402 12.1442 21.6408 12.4148 21.249 12.6054C20.8604 12.796 20.3938 12.8913 19.8491 12.8913Z" fill="#6A7C8D"/>
<path d="M26.5572 8.10722V15.5412H25.1287V8.10722H26.5572ZM28.6977 8.10722V9.30708H23.0216V8.10722H28.6977Z" fill="#6A7C8D"/>
<path d="M32.2238 12.8913H30.4512V11.6966H32.2238C32.4977 11.6966 32.7207 11.6489 32.8927 11.5536C33.0647 11.4549 33.1905 11.3187 33.2702 11.1451C33.3498 10.9716 33.3896 10.7758 33.3896 10.558C33.3896 10.3367 33.3498 10.1308 33.2702 9.94019C33.1905 9.74957 33.0647 9.5964 32.8927 9.48067C32.7207 9.36494 32.4977 9.30708 32.2238 9.30708H30.9481V15.5412H29.5148V8.10722H32.2238C32.7685 8.10722 33.2351 8.21274 33.6237 8.42378C34.0155 8.63141 34.3149 8.91904 34.522 9.28665C34.729 9.65427 34.8325 10.0746 34.8325 10.5478C34.8325 11.0277 34.729 11.443 34.522 11.7936C34.3149 12.1442 34.0155 12.4148 33.6237 12.6054C33.2351 12.796 32.7685 12.8913 32.2238 12.8913Z" fill="#6A7C8D"/>
<path d="M37.2024 13.1313L39.9974 8.10722H41.4308V15.5412H39.9974V10.5171L37.2024 15.5412H35.769V8.10722H37.2024V13.1313Z" fill="#6A7C8D"/>
<path d="M46.7056 13.0751H48.1342C48.1055 13.5755 47.9765 14.0197 47.7471 14.4077C47.521 14.7958 47.2041 15.0987 46.7963 15.3166C46.3918 15.5344 45.9045 15.6433 45.3343 15.6433C44.8884 15.6433 44.4886 15.5616 44.1351 15.3982C43.7815 15.2315 43.4789 14.9932 43.2273 14.6834C42.9788 14.3737 42.7893 13.9993 42.6587 13.5602C42.5281 13.1211 42.4628 12.6292 42.4628 12.0846V11.5689C42.4628 11.0243 42.5297 10.5325 42.6635 10.0934C42.8004 9.65086 42.9947 9.27474 43.2464 8.96499C43.5012 8.65524 43.8054 8.41697 44.159 8.25018C44.5125 8.08339 44.9075 8 45.3439 8C45.9236 8 46.4125 8.11233 46.8107 8.33698C47.212 8.56163 47.5226 8.87138 47.7424 9.26623C47.9653 9.66107 48.0991 10.1104 48.1437 10.6142H46.7103C46.6944 10.3146 46.6387 10.061 46.5431 9.85339C46.4476 9.64235 46.3026 9.48407 46.1083 9.37856C45.9172 9.26963 45.6624 9.21517 45.3439 9.21517C45.105 9.21517 44.8963 9.26283 44.718 9.35813C44.5396 9.45344 44.3899 9.5981 44.2689 9.79212C44.1478 9.98614 44.057 10.2312 43.9965 10.5274C43.9392 10.8201 43.9105 11.1639 43.9105 11.5587V12.0846C43.9105 12.4692 43.9376 12.8079 43.9917 13.1007C44.0459 13.39 44.1287 13.6351 44.2402 13.8359C44.3549 14.0333 44.5014 14.1831 44.6797 14.2852C44.8613 14.3839 45.0795 14.4333 45.3343 14.4333C45.6337 14.4333 45.8806 14.3822 46.0749 14.2801C46.2692 14.178 46.4173 14.0265 46.5192 13.8257C46.6243 13.6248 46.6865 13.3747 46.7056 13.0751Z" fill="#6A7C8D"/>
<path fill-rule="evenodd" clip-rule="evenodd" d="M6.06673 3.25478C7.44657 3.27512 8.56326 4.45495 8.56065 5.89005C8.55767 7.32496 7.43641 8.47177 6.05658 8.45143C4.67637 8.43089 3.55967 7.25107 3.56228 5.81596C3.5647 4.38125 4.68652 3.23424 6.06673 3.25478Z" fill="#6A7C8D"/>
<path fill-rule="evenodd" clip-rule="evenodd" d="M30.4137 23.3449C15.4122 23.1232 3.2559 17.7624 3.26876 11.3742C3.27067 10.3852 3.56407 9.42948 4.11426 8.52146C3.60392 8.06298 3.22978 7.44424 3.06624 6.74298C1.52302 8.2117 0.663688 9.85105 0.660166 11.5895C0.647143 18.2119 13.0618 23.7663 28.3837 23.993C32.3163 24.0512 36.1748 23.7466 39.714 23.1152L39.8821 22.7603C36.8695 23.192 33.6631 23.3931 30.4137 23.3449Z" fill="#6A7C8D"/>
<path d="M45.8393 21.506C44.7534 21.9881 41.1886 22.8025 39.6007 23.1358C39.6007 23.0764 39.6294 22.9112 39.7443 22.7797C42.2501 22.3962 45.5261 21.5471 45.8393 21.506Z" fill="#6A7C8D"/>
<path fill-rule="evenodd" clip-rule="evenodd" d="M8.29921 3.4466C8.58516 3.70237 8.82826 4.00785 9.01616 4.35028C13.9935 1.70898 21.7507 0.0776291 30.4594 0.206603C31.7194 0.225312 32.9826 0.282175 34.2287 0.374963L34.2086 0.360608L34.1845 0.352887C32.296 0.152995 30.3636 0.035869 28.4308 0.00715253C20.5104 -0.110003 13.3603 1.21951 8.29921 3.4466Z" fill="#6A7C8D"/>
</svg>
