<svg width="54" height="12" viewBox="0 0 54 12" fill="none" xmlns="http://www.w3.org/2000/svg">
<path d="M3.91849 3.91819C5.39957 3.91819 6.86299 3.91819 8.33947 3.91819C8.36098 3.85827 8.38326 3.79912 8.40323 3.73997C8.74124 2.70905 9.07924 1.67813 9.41725 0.647205C9.42954 0.6111 9.4403 0.574226 9.45412 0.538121C9.52249 0.359131 9.65001 0.259265 9.84437 0.251583C10.041 0.243901 10.1901 0.334549 10.2676 0.518148C10.3422 0.694834 10.4059 0.87536 10.4751 1.05435C10.9513 2.29422 11.4322 3.53179 11.9016 4.77396C12.2803 5.77723 12.1628 6.73056 11.5651 7.62167C11.3785 7.90053 11.1388 8.13022 10.8707 8.33149C9.41341 9.4254 7.95537 10.5178 6.50271 11.6178C6.2638 11.7984 5.98187 11.7907 5.74987 11.6148C4.2926 10.5101 2.82611 9.41926 1.36807 8.31536C0.543027 7.69004 0.14126 6.84656 0.143565 5.8141C0.144333 5.48685 0.206557 5.16575 0.324091 4.85923C0.871816 3.42808 1.42185 1.9977 1.9688 0.566545C2.0364 0.389859 2.14779 0.272325 2.34061 0.25312C2.57337 0.229306 2.74007 0.342231 2.81766 0.578067C3.01202 1.16574 3.20253 1.75495 3.39535 2.34339C3.54975 2.8166 3.70416 3.28981 3.85934 3.76302C3.87547 3.81141 3.89544 3.85827 3.91849 3.91819Z" fill="#6A7C8D"/>
<path d="M21.7161 7.42123C20.9725 7.42123 20.2589 7.42123 19.536 7.42123C19.536 6.96953 19.536 6.5378 19.536 6.10685C19.6712 6.06613 23.1281 6.05384 23.3647 6.09302C23.3708 6.10915 23.3824 6.12682 23.3824 6.14372C23.3824 6.74368 23.4123 7.34518 23.3263 7.94284C23.1043 9.48538 22.0864 10.6331 20.5746 11.0149C19.6566 11.2469 18.7355 11.2307 17.8344 10.9281C16.5354 10.491 15.7065 9.57987 15.2648 8.30312C14.9767 7.46963 14.9076 6.60771 14.9783 5.73197C15.0305 5.08361 15.1665 4.45599 15.443 3.86524C16.086 2.49324 17.1546 1.68279 18.661 1.47615C19.6228 1.34402 20.55 1.47308 21.4112 1.93937C22.3868 2.46712 23.0082 3.27296 23.2579 4.35843C23.2733 4.42603 23.2817 4.49517 23.2956 4.57736C22.7079 4.57736 22.1348 4.57736 21.5456 4.57736C21.5233 4.51975 21.4995 4.45522 21.4742 4.39146C21.1454 3.58024 20.5515 3.11395 19.6781 3.00256C18.4282 2.84277 17.392 3.48422 16.9502 4.68952C16.7336 5.28027 16.6698 5.89405 16.6952 6.5186C16.7167 7.05787 16.8035 7.5864 17.0248 8.08419C17.3674 8.85623 17.9289 9.37476 18.7701 9.55375C19.3132 9.66975 19.8533 9.63979 20.3733 9.44006C21.1192 9.15275 21.5356 8.5935 21.6708 7.81532C21.6923 7.69625 21.6992 7.57564 21.7161 7.42123Z" fill="#6A7C8D"/>
<path d="M48.2557 11.0218C47.6949 11.0218 47.1548 11.0218 46.6033 11.0218C46.6033 7.86986 46.6033 4.72409 46.6033 1.56757C47.1594 1.56757 47.7056 1.56757 48.2779 1.56757C48.2779 1.80724 48.2779 2.04154 48.2779 2.27508C48.2779 2.51168 48.2779 2.74829 48.2779 2.98412C48.2779 3.21381 48.2779 3.44427 48.2779 3.67396C48.2779 3.91057 48.2764 4.14717 48.2787 4.38301C48.281 4.61501 48.2687 4.847 48.2864 5.07823C48.3018 5.08284 48.3179 5.08668 48.3333 5.09129C48.3671 5.03444 48.4024 4.97836 48.4354 4.92075C48.7665 4.34383 49.2505 3.96588 49.9127 3.87139C51.0465 3.71007 51.9784 4.07035 52.6521 5.01985C52.9916 5.49843 53.1706 6.04462 53.252 6.61924C53.365 7.41739 53.3434 8.21248 53.1114 8.99143C52.9332 9.59062 52.6375 10.1214 52.1527 10.5309C51.5927 11.0041 50.939 11.1892 50.2138 11.1524C49.7122 11.127 49.2643 10.9695 48.8833 10.6354C48.6943 10.4694 48.543 10.2728 48.4162 10.0554C48.3863 10.0047 48.3517 9.95629 48.3041 9.88254C48.2288 10.03 48.2626 10.1506 48.2572 10.2666C48.2518 10.3942 48.2557 10.5224 48.2557 10.65C48.2557 10.7706 48.2557 10.8912 48.2557 11.0218ZM51.5919 7.69702C51.595 7.0694 51.5459 6.63921 51.3753 6.2313C51.1003 5.57295 50.5633 5.15505 49.7414 5.22803C49.3073 5.26644 48.9632 5.46002 48.7012 5.80341C48.556 5.99392 48.4569 6.20825 48.3901 6.4364C48.2295 6.98567 48.2119 7.54338 48.2964 8.10647C48.3455 8.43141 48.44 8.741 48.6067 9.02677C49.0016 9.70124 49.7191 9.91019 50.412 9.6974C50.8721 9.55606 51.1587 9.22266 51.3484 8.79631C51.532 8.38609 51.5927 7.95206 51.5919 7.69702Z" fill="#6A7C8D"/>
<path d="M41.0218 6.02302C40.5063 5.95004 39.9962 5.87706 39.4654 5.80178C39.4923 5.7119 39.5092 5.63815 39.5361 5.56825C39.808 4.8592 40.3081 4.37293 41.0079 4.09331C41.5695 3.86899 42.1564 3.80293 42.7579 3.84057C43.1942 3.86822 43.6198 3.94581 44.0224 4.12403C44.8712 4.50045 45.3091 5.1588 45.3629 6.07987C45.3675 6.16283 45.3675 6.2458 45.3675 6.32876C45.3675 7.81215 45.3675 9.29477 45.3675 10.7782C45.3675 10.8542 45.3675 10.9295 45.3675 11.0194C44.8259 11.0194 44.2997 11.0194 43.7519 11.0194C43.7519 10.706 43.7519 10.3971 43.7519 10.0883C43.7404 10.0845 43.7297 10.0806 43.7181 10.0768C43.6997 10.0975 43.6774 10.1152 43.6636 10.1383C43.3287 10.7052 42.8147 11.0109 42.1825 11.1292C41.6525 11.2283 41.1239 11.1984 40.6116 11.0217C39.6137 10.6783 39.1758 9.86247 39.2365 8.87764C39.2495 8.67023 39.2972 8.45974 39.3632 8.26155C39.5007 7.84826 39.7927 7.55788 40.1668 7.34662C40.5155 7.1492 40.8943 7.03013 41.2868 6.96944C41.7915 6.89185 42.3008 6.84192 42.8071 6.77201C42.996 6.74589 43.1858 6.70902 43.3671 6.65141C43.6029 6.57689 43.679 6.45167 43.6797 6.20739C43.6828 5.56517 43.3156 5.18261 42.6358 5.12576C42.3784 5.10426 42.1249 5.13421 41.8791 5.21564C41.4881 5.34547 41.2707 5.54751 41.0218 6.02302ZM43.8065 7.68694C43.6498 7.7338 43.5307 7.78219 43.407 7.80524C43.0375 7.87438 42.6665 7.9366 42.2954 7.99575C42.0112 8.04108 41.7301 8.09562 41.4719 8.22928C41.2615 8.33837 41.0955 8.49124 41.0179 8.724C40.8474 9.23332 41.1216 9.73034 41.6686 9.874C42.0934 9.98538 42.5182 9.96387 42.9246 9.78796C43.3748 9.59284 43.6744 9.25636 43.7735 8.7724C43.8441 8.4221 43.7957 8.06335 43.8065 7.68694Z" fill="#6A7C8D"/>
<path d="M34.2345 9.58366C35.6334 9.58366 37.0069 9.58366 38.3751 9.58366C38.4189 9.73653 38.4312 10.7283 38.3951 11.0202C36.4431 11.0202 34.4895 11.0202 32.5229 11.0202C32.5229 7.86904 32.5229 4.72174 32.5229 1.56598C33.0906 1.56598 33.6453 1.56598 34.2253 1.56598C34.2283 1.63896 34.2345 1.71194 34.2345 1.78568C34.2353 2.98715 34.2353 4.18937 34.2353 5.39084C34.2353 6.70753 34.2353 8.02499 34.2353 9.34168C34.2345 9.41619 34.2345 9.49148 34.2345 9.58366Z" fill="#6A7C8D"/>
<path d="M28.1329 5.2326C27.7872 5.2326 27.47 5.2326 27.1396 5.2326C27.1396 4.79857 27.1396 4.3799 27.1396 3.93742C27.46 3.93742 27.7819 3.93742 28.1252 3.93742C28.1252 3.36204 28.1252 2.80893 28.1252 2.26428C28.2789 2.21204 29.6025 2.20283 29.8191 2.25045C29.8191 2.79895 29.8191 3.35282 29.8191 3.92973C30.2946 3.92973 30.7509 3.92973 31.2165 3.92973C31.2165 4.37222 31.2165 4.79088 31.2165 5.23337C30.7525 5.23337 30.2962 5.23337 29.8291 5.23337C29.8253 5.3194 29.8199 5.38163 29.8199 5.44385C29.8191 6.5562 29.8168 7.66778 29.8222 8.78013C29.823 8.94453 29.8422 9.11276 29.8798 9.27255C29.939 9.52221 30.1133 9.67201 30.3684 9.69045C30.595 9.70658 30.8239 9.68891 31.0813 9.68584C31.1688 10.0914 31.2618 10.5232 31.3578 10.9657C30.9046 11.107 30.4652 11.1654 30.015 11.1262C29.7208 11.1009 29.4335 11.0409 29.1654 10.9119C28.5616 10.6215 28.2313 10.1375 28.1598 9.47612C28.1414 9.30481 28.136 9.13197 28.136 8.95989C28.1337 7.80299 28.1352 6.64608 28.1352 5.48994C28.1329 5.41236 28.1329 5.33707 28.1329 5.2326Z" fill="#6A7C8D"/>
<path d="M24.5339 3.94049C25.0924 3.94049 25.6386 3.94049 26.1963 3.94049C26.1963 6.30347 26.1963 8.65723 26.1963 11.0217C25.6417 11.0217 25.0947 11.0217 24.5339 11.0217C24.5339 8.66721 24.5339 6.31422 24.5339 3.94049Z" fill="#6A7C8D"/>
</svg>
