<svg width="36" height="16" viewBox="0 0 36 16" fill="none" xmlns="http://www.w3.org/2000/svg">
<path d="M33.0376 4.40357C33.0048 4.29346 32.908 4.21869 32.7986 4.21869H30.4597C30.3503 4.21869 30.2536 4.29346 30.2208 4.40357L27.2699 14.2749C27.2459 14.3552 27.2596 14.4428 27.3068 14.5108C27.3539 14.5788 27.4291 14.6188 27.5089 14.6188H29.1191C29.2302 14.6188 29.328 14.5417 29.3595 14.4293L31.3915 7.1693C31.3915 7.1693 31.4447 6.98794 31.6287 6.98794C31.8158 6.98794 31.8614 7.17643 31.8614 7.1766L32.8042 10.6194H31.5089C31.3966 10.6194 31.298 10.6981 31.2676 10.8121L30.9042 12.175C30.8829 12.2547 30.8983 12.3402 30.9457 12.4061C30.9931 12.4721 31.067 12.5108 31.1455 12.5108H33.3313L33.8992 14.433C33.9318 14.5435 34.0288 14.6188 34.1385 14.6188H35.7494C35.8293 14.6188 35.9044 14.5788 35.9515 14.5108C35.9988 14.4428 36.0125 14.3552 35.9885 14.2749L33.0376 4.40357Z" fill="#6A7C8D"/>
<path d="M22.0388 6.14067H23.9879C24.9959 6.14067 25.1982 6.55902 25.1982 7.23408V8.24224C25.1982 9.08246 24.8929 9.36595 23.9879 9.36595H22.0388V6.14067ZM27.99 14.1824L25.8483 10.9239C26.7705 10.5204 27.2379 9.67478 27.2379 8.41025V7.08135C27.2379 5.10146 26.2578 4.21869 24.0602 4.21869H20.2499C20.1115 4.21869 19.9993 4.33702 19.9993 4.48296V14.3543C19.9993 14.5005 20.1115 14.6188 20.2499 14.6188H21.7882C21.9266 14.6188 22.0388 14.5005 22.0388 14.3543V11.2585H23.6131L25.7541 14.5053C25.8009 14.5763 25.8778 14.6188 25.9598 14.6188H27.7981H27.7997C27.9381 14.6188 28.0503 14.5005 28.0503 14.3543C28.0503 14.2886 28.0276 14.2285 27.99 14.1824Z" fill="#6A7C8D"/>
<path d="M18.1305 4.21869H16.5922C16.4538 4.21869 16.3416 4.33702 16.3416 4.48296V14.3543C16.3416 14.5005 16.4538 14.6188 16.5922 14.6188H18.1305C18.2689 14.6188 18.3812 14.5005 18.3812 14.3543V4.48296C18.3812 4.33702 18.2689 4.21869 18.1305 4.21869Z" fill="#6A7C8D"/>
<path d="M14.5278 4.21869H12.9708C12.839 4.21869 12.7315 4.33148 12.7315 4.47045V12.1948C12.7315 13.1655 12.0301 13.4846 11.5555 13.5101C11.4916 13.5134 11.4171 13.5559 11.3762 13.6189C11.3351 13.6822 11.3237 13.7616 11.345 13.8348L11.7236 15.1336C11.7544 15.2399 11.8631 15.3082 12.0398 15.3082C13.5295 15.3082 14.7665 14.0746 14.7665 12.421V4.47054C14.7665 4.40374 14.7414 4.33962 14.6965 4.29237C14.6518 4.24512 14.5911 4.21869 14.5278 4.21869Z" fill="#6A7C8D"/>
<path d="M2.47092 1.5257C1.99256 1.5257 1.60522 1.93372 1.60522 2.43952C1.60522 2.94406 1.99256 3.35351 2.47092 3.35351C2.94968 3.35351 3.33662 2.94406 3.33662 2.43952C3.33662 1.93372 2.94968 1.5257 2.47092 1.5257Z" fill="#6A7C8D"/>
<path d="M8.15843 1.5257C7.67983 1.5257 7.29297 1.93372 7.29297 2.43952C7.29297 2.94406 7.67983 3.35351 8.15843 3.35351C8.63567 3.35351 9.02396 2.94406 9.02396 2.43952C9.02396 1.93372 8.63567 1.52637 8.15843 1.5257Z" fill="#6A7C8D"/>
<path d="M5.31467 0.691833C4.83631 0.691833 4.44897 1.09978 4.44897 1.60574C4.44897 2.11028 4.83631 2.51982 5.31467 2.51982C5.79335 2.51982 6.18021 2.11028 6.18021 1.60574C6.18021 1.09978 5.79335 0.691833 5.31467 0.691833Z" fill="#6A7C8D"/>
<path d="M10.205 4.07214C10.1568 4.03354 10.099 4.01348 10.0402 4.01348C10.0076 4.01348 9.97468 4.01978 9.94348 4.03245C9.35731 4.26886 8.76206 4.44836 8.21878 4.58188C8.10794 4.60916 8.01842 4.69593 7.98135 4.80016C7.5855 5.94377 6.57475 7.03274 5.51427 8.17332C5.4717 8.21595 5.41211 8.27218 5.31503 8.27218C5.2182 8.27218 5.15916 8.21771 5.1158 8.17332C4.05548 7.03274 3.04473 5.94754 2.64872 4.80386C2.61156 4.69971 2.52205 4.61293 2.41145 4.58558C1.86785 4.45206 1.27109 4.26701 0.685629 4.0306C0.654279 4.01801 0.621338 4.01172 0.588636 4.01172C0.529915 4.01172 0.473104 4.03119 0.425045 4.06988C0.349933 4.1303 0.310945 4.22832 0.319857 4.32248C0.409609 5.27348 0.765913 6.20317 1.4089 7.17742C2.01329 8.09334 2.80165 8.9412 3.56383 9.76104C4.9682 11.2719 6.29483 12.6988 6.41124 14.3535C6.42174 14.5027 6.53966 14.6184 6.68185 14.6184H8.33176C8.40608 14.6184 8.47705 14.5862 8.52837 14.5294C8.57946 14.4727 8.60651 14.3965 8.60277 14.3181C8.55089 13.2118 8.15616 12.104 7.39605 10.9316C7.23675 10.6858 7.06616 10.4466 6.88777 10.2125C6.81528 10.1172 6.8456 9.99879 6.90106 9.93903C6.95588 9.87987 7.01094 9.82087 7.06632 9.76104C7.82858 8.94112 8.61677 8.09334 9.22133 7.17742C9.86424 6.20309 10.2204 5.27885 10.3102 4.32802C10.3192 4.23243 10.2781 4.13106 10.205 4.07214Z" fill="#6A7C8D"/>
<path d="M3.54466 11.0481C3.50567 11.005 3.44831 10.9611 3.35203 10.9611C3.22886 10.9611 3.15581 11.0509 3.1282 11.0953C2.43422 12.2092 2.07576 13.2605 2.02619 14.317C2.02261 14.3949 2.04982 14.4723 2.10091 14.5292C2.15223 14.5857 2.22416 14.6184 2.29831 14.6184H3.94544C4.08715 14.6184 4.20651 14.5014 4.21693 14.3523C4.25281 13.8432 4.40312 13.3328 4.67675 12.7964C4.7716 12.6109 4.69792 12.4366 4.64333 12.3621C4.37185 11.9897 4.03933 11.5925 3.54466 11.0481Z" fill="#6A7C8D"/>
<path d="M5.31649 4.9247C5.8336 4.9247 6.13349 4.89197 6.23884 4.89197C6.36647 4.89197 6.48844 5.00224 6.48844 5.15666C6.48844 5.20172 6.47834 5.23395 6.46831 5.2624C6.39973 5.45575 6.08718 6.15147 5.50531 6.74823C5.44006 6.8152 5.36606 6.82771 5.31514 6.82771H5.3145C5.26366 6.82771 5.18974 6.8152 5.1245 6.74823C4.54262 6.15147 4.23 5.45575 4.16157 5.2624C4.15146 5.23395 4.14136 5.20172 4.14136 5.15666C4.14136 5.00224 4.26349 4.89197 4.39112 4.89197C4.49647 4.89197 4.7962 4.9247 5.31307 4.9247H5.31649Z" fill="#6A7C8D"/>
</svg>
