<svg width="74" height="36" viewBox="0 0 74 36" fill="none" xmlns="http://www.w3.org/2000/svg">
<path d="M24.3127 21.5274L24.1713 26H22.0864V23.3118H21.2003V21.5274H24.3127ZM14 23.3118V12.1608H16.2264V21.5197H20.5897V12.1608H22.831V23.3118H14Z" fill="#0987FC"/>
<path d="M29.9047 19.337H27.1422V17.5449H29.9047C30.3316 17.5449 30.6791 17.4734 30.9471 17.3304C31.2152 17.1823 31.4113 16.9781 31.5354 16.7177C31.6595 16.4573 31.7215 16.1637 31.7215 15.837C31.7215 15.5051 31.6595 15.1962 31.5354 14.9103C31.4113 14.6244 31.2152 14.3946 30.9471 14.221C30.6791 14.0474 30.3316 13.9606 29.9047 13.9606H27.9166V23.3118H25.6828V12.1608H29.9047C30.7535 12.1608 31.4808 12.3191 32.0864 12.6357C32.6969 12.9471 33.1636 13.3786 33.4862 13.93C33.8089 14.4814 33.9702 15.112 33.9702 15.8217C33.9702 16.5416 33.8089 17.1645 33.4862 17.6904C33.1636 18.2163 32.6969 18.6222 32.0864 18.9081C31.4808 19.194 30.7535 19.337 29.9047 19.337Z" fill="#0987FC"/>
<path d="M40.3589 12.1608V23.3118H38.1325V12.1608H40.3589ZM43.6947 12.1608V13.9606H34.8488V12.1608H43.6947Z" fill="#0987FC"/>
<path d="M49.1899 19.337H46.4274V17.5449H49.1899C49.6168 17.5449 49.9643 17.4734 50.2323 17.3304C50.5004 17.1823 50.6964 16.9781 50.8205 16.7177C50.9446 16.4573 51.0067 16.1637 51.0067 15.837C51.0067 15.5051 50.9446 15.1962 50.8205 14.9103C50.6964 14.6244 50.5004 14.3946 50.2323 14.221C49.9643 14.0474 49.6168 13.9606 49.1899 13.9606H47.2018V23.3118H44.968V12.1608H49.1899C50.0387 12.1608 50.7659 12.3191 51.3716 12.6357C51.9821 12.9471 52.4487 13.3786 52.7714 13.93C53.0941 14.4814 53.2554 15.112 53.2554 15.8217C53.2554 16.5416 53.0941 17.1645 52.7714 17.6904C52.4487 18.2163 51.9821 18.6222 51.3716 18.9081C50.7659 19.194 50.0387 19.337 49.1899 19.337Z" fill="#0987FC"/>
<path d="M56.9486 19.6969L61.3045 12.1608H63.5383V23.3118H61.3045V15.7757L56.9486 23.3118H54.7148V12.1608H56.9486V19.6969Z" fill="#0987FC"/>
<path d="M71.7587 19.6127H73.9851C73.9404 20.3632 73.7394 21.0295 73.382 21.6116C73.0295 22.1937 72.5356 22.6481 71.9002 22.9748C71.2698 23.3016 70.5103 23.465 69.6217 23.465C68.9268 23.465 68.3038 23.3425 67.7528 23.0974C67.2018 22.8472 66.7302 22.4898 66.338 22.0252C65.9509 21.5605 65.6555 20.9989 65.452 20.3403C65.2484 19.6816 65.1467 18.9438 65.1467 18.1269V17.3534C65.1467 16.5365 65.2509 15.7987 65.4594 15.14C65.6729 14.4763 65.9757 13.9121 66.3678 13.4475C66.765 12.9829 67.239 12.6255 67.79 12.3753C68.341 12.1251 68.9566 12 69.6366 12C70.5401 12 71.3021 12.1685 71.9226 12.5055C72.548 12.8425 73.032 13.3071 73.3745 13.8993C73.722 14.4916 73.9305 15.1656 74 15.9212H71.7662C71.7414 15.4719 71.6545 15.0915 71.5056 14.7801C71.3567 14.4635 71.1308 14.2261 70.828 14.0678C70.5302 13.9044 70.133 13.8228 69.6366 13.8228C69.2643 13.8228 68.9392 13.8942 68.6612 14.0372C68.3832 14.1802 68.1499 14.3972 67.9613 14.6882C67.7726 14.9792 67.6312 15.3468 67.5369 15.791C67.4475 16.2301 67.4028 16.7458 67.4028 17.3381V18.1269C67.4028 18.7039 67.445 19.2119 67.5294 19.651C67.6138 20.085 67.7429 20.4526 67.9166 20.7538C68.0953 21.05 68.3237 21.2746 68.6016 21.4278C68.8846 21.5759 69.2246 21.6499 69.6217 21.6499C70.0884 21.6499 70.4731 21.5733 70.7759 21.4201C71.0787 21.267 71.3095 21.0398 71.4684 20.7385C71.6322 20.4373 71.729 20.062 71.7587 19.6127Z" fill="#0987FC"/>
<path fill-rule="evenodd" clip-rule="evenodd" d="M8.4258 4.88217C10.5762 4.91268 12.3165 6.68242 12.3124 8.83508C12.3078 10.9874 10.5604 12.7077 8.40998 12.6771C6.259 12.6463 4.51871 10.8766 4.52277 8.72394C4.52654 6.57187 6.27482 4.85136 8.4258 4.88217Z" fill="#0987FC"/>
<path fill-rule="evenodd" clip-rule="evenodd" d="M46.369 35.0173C22.9901 34.6848 4.04529 26.6436 4.06534 17.0613C4.06832 15.5779 4.52556 14.1442 5.38299 12.7822C4.58766 12.0945 4.0046 11.1664 3.74972 10.1145C1.34472 12.3175 0.00550365 14.7766 1.59536e-05 17.3843C-0.02028 27.3178 19.3272 35.6495 43.2054 35.9894C49.334 36.0769 55.3472 35.6199 60.8629 34.6729L61.1249 34.1404C56.4299 34.788 51.433 35.0897 46.369 35.0173Z" fill="#0987FC"/>
<path d="M70.4088 32.259C68.7165 32.9821 63.161 34.2038 60.6863 34.7037C60.6863 34.6146 60.7311 34.3668 60.9101 34.1695C64.8153 33.5943 69.9206 32.3206 70.4088 32.259Z" fill="#0987FC"/>
<path fill-rule="evenodd" clip-rule="evenodd" d="M11.905 5.16991C12.3506 5.55355 12.7295 6.01177 13.0223 6.52542C20.7792 2.56346 32.8683 0.116444 46.4403 0.309904C48.4039 0.337968 50.3724 0.423262 52.3143 0.562445L52.2831 0.540911L52.2455 0.529331C49.3024 0.229493 46.2909 0.0538035 43.2788 0.0107288C30.9354 -0.165004 19.7923 1.82926 11.905 5.16991Z" fill="#0987FC"/>
</svg>
