<svg width="80" height="35" viewBox="0 0 104 57" fill="none" xmlns="http://www.w3.org/2000/svg">
<path d="M50.044 13.5691C50.9802 13.2032 52.0198 13.2032 52.956 13.5691L77.1019 23.0058C78.6361 23.6054 79.6458 25.0841 79.6458 26.7313V43.2687C79.6458 44.9159 78.6361 46.3946 77.1019 46.9942L52.956 56.4309C52.0198 56.7968 50.9802 56.7968 50.044 56.4309L25.8981 46.9942C24.3639 46.3946 23.3542 44.9159 23.3542 43.2687V26.7313C23.3542 25.0841 24.3639 23.6054 25.8981 23.0058L50.044 13.5691Z" fill="#ECECEC"/>
<path d="M52.592 14.5004L76.7379 23.9372C77.8885 24.3869 78.6458 25.4959 78.6458 26.7313V43.2687C78.6458 44.5041 77.8885 45.6131 76.7379 46.0628L52.592 55.4996C51.8899 55.774 51.1101 55.774 50.408 55.4996L26.2621 46.0628C25.1115 45.6131 24.3542 44.5041 24.3542 43.2687V26.7313C24.3542 25.4959 25.1115 24.3869 26.2621 23.9372L50.408 14.5004C51.1101 14.226 51.8899 14.226 52.592 14.5004Z" stroke="black" stroke-opacity="0.53" stroke-width="2"/>
<path d="M50.4116 0.687309C51.4251 0.24875 52.5749 0.24875 53.5884 0.687309L95.5157 18.8289C98.7311 20.2202 98.7311 24.7798 95.5157 26.1711L53.5884 44.3127C52.5749 44.7513 51.4251 44.7513 50.4116 44.3127L8.48428 26.1711C5.26888 24.7798 5.26887 20.2202 8.48427 18.8289L50.4116 0.687309Z" fill="#0987FC"/>
<path d="M53.1913 1.60508L95.1186 19.7467C97.5302 20.7901 97.5302 24.2099 95.1186 25.2533L53.1913 43.3949C52.4312 43.7238 51.5688 43.7238 50.8087 43.3949L8.88139 25.2533C6.46984 24.2099 6.46984 20.7901 8.88139 19.7467L50.8087 1.60508C51.5688 1.27616 52.4312 1.27616 53.1913 1.60508Z" stroke="black" stroke-opacity="0.53" stroke-width="2"/>
<path d="M47.8906 13.9375V16.9023H39.2422V13.9375H47.8906ZM50.5391 13.9375V31H46.7188V13.9375H50.5391ZM38.8789 13.9375H42.6758L42.2422 22.5625C42.1719 23.8516 42.043 24.9727 41.8555 25.9258C41.6758 26.8711 41.4258 27.6719 41.1055 28.3281C40.793 28.9766 40.4141 29.5 39.9688 29.8984C39.5234 30.2891 39.0039 30.5703 38.4102 30.7422C37.8164 30.9141 37.1406 31 36.3828 31H35.457V28.0469L35.9023 28C36.2773 27.9688 36.6016 27.8711 36.875 27.707C37.1562 27.543 37.3984 27.3008 37.6016 26.9805C37.8047 26.6523 37.9727 26.2344 38.1055 25.7266C38.2461 25.2188 38.3555 24.6016 38.4336 23.875C38.5195 23.1484 38.5781 22.2969 38.6094 21.3203L38.8789 13.9375ZM57.1602 13.9375V31H53.3516V13.9375H57.1602ZM67.1094 13.9375L60.7695 24.0977H56.4102L55.9414 20.6875H58.7773L62.4922 13.9375H67.1094ZM63.1602 31L58.7773 23.4531L61.4844 20.8281L67.6836 31H63.1602Z" fill="white"/>
<path d="M89 29V50" stroke="black" stroke-width="3" stroke-linecap="round"/>
</svg>
