<svg width="47" height="24" viewBox="0 0 47 24" fill="none" xmlns="http://www.w3.org/2000/svg">
<path d="M12.6509 18.1931V5.97656H14.198V11.0341H19.2986V5.97656H20.8628V18.1931H19.2986V12.5795H14.198V18.1931H12.6509ZM24.4728 5.97656V13.5805C24.4728 15.7756 25.3116 16.8702 27.0004 16.8702C27.7655 16.8702 28.3832 16.601 28.8649 16.0566C29.3013 15.559 29.5223 14.9853 29.5223 14.3239V5.97656H31.1035V18.1931H29.5223V17.2039C29.341 17.5785 29.0009 17.8771 28.5022 18.0936C28.0035 18.3102 27.4991 18.4156 27.0004 18.4156C25.7763 18.4156 24.7845 17.9941 24.0308 17.1395C23.277 16.2907 22.8973 15.1317 22.8973 13.6624V5.97656H24.4728ZM34.6115 5.97656V13.3697C34.6115 15.5649 35.4503 16.6653 37.1391 16.6653H39.6611V5.97656H41.2422V16.6653H42.2284V18.1873H37.0711C35.796 18.1873 34.8099 17.7717 34.0958 16.9346C33.3817 16.0975 33.0304 14.9385 33.0304 13.4458V5.97656H34.6115Z" fill="#6A7C8D"/>
<path fill-rule="evenodd" clip-rule="evenodd" d="M5.99185 3.58246C7.38033 3.58246 8.50812 4.74734 8.50812 6.18148C8.50812 7.61563 7.38033 8.78051 5.99185 8.78051C4.60337 8.78051 3.47559 7.61563 3.47559 6.18148C3.47559 4.74734 4.60337 3.58246 5.99185 3.58246Z" fill="#6A7C8D"/>
<path fill-rule="evenodd" clip-rule="evenodd" d="M3.19211 11.7483C3.19211 10.759 3.48681 9.79902 4.03654 8.87999C3.52081 8.42926 3.14111 7.81463 2.97676 7.11804C1.42392 8.61072 0.5625 10.2615 0.5625 12C0.5625 18.6263 13.0815 24 28.5135 24C35.1612 24 41.5992 22.9815 46.6601 21.1258L46.6374 21.1141C41.9676 22.5483 36.3343 23.321 30.565 23.321C15.4447 23.3268 3.19211 18.1405 3.19211 11.7483Z" fill="#6A7C8D"/>
<path fill-rule="evenodd" clip-rule="evenodd" d="M8.2417 3.74049C8.53073 3.9922 8.77442 4.29659 8.96711 4.6361C13.977 1.92 21.7865 0.169756 30.5594 0.169756C31.8289 0.169756 33.0983 0.204878 34.3565 0.280976L34.3338 0.269268L34.3111 0.263415C32.4069 0.0878049 30.4631 0 28.5135 0C20.534 0 13.3366 1.43415 8.2417 3.74049Z" fill="#6A7C8D"/>
</svg>
